<?xml version="1.0" encoding="UTF-8" standalone="no"?>
<!-- Created with Inkscape (http://www.inkscape.org/) -->

<svg
   xmlns:dc="http://purl.org/dc/elements/1.1/"
   xmlns:cc="http://creativecommons.org/ns#"
   xmlns:rdf="http://www.w3.org/1999/02/22-rdf-syntax-ns#"
   xmlns:svg="http://www.w3.org/2000/svg"
   xmlns="http://www.w3.org/2000/svg"
   xmlns:sodipodi="http://sodipodi.sourceforge.net/DTD/sodipodi-0.dtd"
   xmlns:inkscape="http://www.inkscape.org/namespaces/inkscape"
   width="200mm"
   height="200mm"
   viewBox="0 0 200 200"
   version="1.1"
   id="svg8"
   inkscape:version="0.92.4 (5da689c313, 2019-01-14)"
   sodipodi:docname="generic1.svg">
  <defs
     id="defs2" />
  <sodipodi:namedview
     id="base"
     pagecolor="#000000"
     bordercolor="#666666"
     borderopacity="1.0"
     inkscape:pageopacity="0.50196078"
     inkscape:pageshadow="2"
     inkscape:zoom="0.98994949"
     inkscape:cx="278.30735"
     inkscape:cy="382.39237"
     inkscape:document-units="mm"
     inkscape:current-layer="layer1"
     showgrid="false"
     inkscape:pagecheckerboard="true"
     inkscape:window-width="1280"
     inkscape:window-height="961"
     inkscape:window-x="1912"
     inkscape:window-y="-8"
     inkscape:window-maximized="1" />
  <metadata
     id="metadata5">
    <rdf:RDF>
      <cc:Work
         rdf:about="">
        <dc:format>image/svg+xml</dc:format>
        <dc:type
           rdf:resource="http://purl.org/dc/dcmitype/StillImage" />
        <dc:title />
      </cc:Work>
    </rdf:RDF>
  </metadata>
  <g
     inkscape:label="Layer 1"
     inkscape:groupmode="layer"
     id="layer1"
     transform="translate(0,-97)">
    <path
       style="fill:#c8c8c8;fill-opacity:1;stroke:none;stroke-width:0.26475844px;stroke-linecap:butt;stroke-linejoin:miter;stroke-opacity:1"
       d="M 98.064815,296.99992 C 88.003618,297.06392 0,208.99054 0,198.9351 v -1.93528 c 0,0 66.293823,-14.99991 100.0001,-14.99991 33.70627,0 100.0001,14.99991 100.0001,14.99991 v 0.0331 0.0331 1.86913 c 0,10.05544 -88.00363,98.1288 -98.06482,98.06482 h -1.86965 z"
       id="path2503-1-0-2"
       inkscape:connector-curvature="0"
       sodipodi:nodetypes="csczcccsccc" />
    <path
       style="fill:#ffffff;fill-opacity:1;stroke:none;stroke-width:1.00066185px;stroke-linecap:butt;stroke-linejoin:miter;stroke-opacity:1"
       d="M 370.63867,0 C 332.6121,-0.24182929 0,332.63386 0,370.63867 v 7.31445 c 0,0 250.55933,56.69255 377.95312,56.69255 127.3938,0 377.95313,-56.69255 377.95313,-56.69255 v -0.125 -0.125 -7.06445 C 755.90625,332.63386 423.29412,-0.24182551 385.26758,0 h -7.06641 z"
       transform="matrix(0.26458333,0,0,0.26458333,0,97)"
       id="path2503-1-0"
       inkscape:connector-curvature="0"
       sodipodi:nodetypes="csczcccsccc" />
  </g>
</svg>
