<?xml version="1.0" encoding="UTF-8" standalone="no"?>
<!-- Created with Inkscape (http://www.inkscape.org/) -->

<svg
   xmlns:dc="http://purl.org/dc/elements/1.1/"
   xmlns:cc="http://creativecommons.org/ns#"
   xmlns:rdf="http://www.w3.org/1999/02/22-rdf-syntax-ns#"
   xmlns:svg="http://www.w3.org/2000/svg"
   xmlns="http://www.w3.org/2000/svg"
   xmlns:sodipodi="http://sodipodi.sourceforge.net/DTD/sodipodi-0.dtd"
   xmlns:inkscape="http://www.inkscape.org/namespaces/inkscape"
   width="200mm"
   height="200mm"
   viewBox="0 0 200 200"
   version="1.1"
   id="svg8"
   inkscape:version="0.92.4 (5da689c313, 2019-01-14)"
   sodipodi:docname="generic2.svg">
  <defs
     id="defs2" />
  <sodipodi:namedview
     id="base"
     pagecolor="#000000"
     bordercolor="#666666"
     borderopacity="1.0"
     inkscape:pageopacity="0.50196078"
     inkscape:pageshadow="2"
     inkscape:zoom="0.7"
     inkscape:cx="172.08821"
     inkscape:cy="380.74847"
     inkscape:document-units="mm"
     inkscape:current-layer="layer1"
     showgrid="false"
     inkscape:pagecheckerboard="true"
     inkscape:window-width="1280"
     inkscape:window-height="961"
     inkscape:window-x="1912"
     inkscape:window-y="-8"
     inkscape:window-maximized="1" />
  <metadata
     id="metadata5">
    <rdf:RDF>
      <cc:Work
         rdf:about="">
        <dc:format>image/svg+xml</dc:format>
        <dc:type
           rdf:resource="http://purl.org/dc/dcmitype/StillImage" />
        <dc:title />
      </cc:Work>
    </rdf:RDF>
  </metadata>
  <g
     inkscape:label="Layer 1"
     inkscape:groupmode="layer"
     id="layer1"
     transform="translate(0,-97)">
    <path
       style="fill:#c8c8c8;fill-opacity:1;stroke:none;stroke-width:0.3419314px;stroke-linecap:butt;stroke-linejoin:miter;stroke-opacity:1"
       d="m 99.980481,296.99992 c -42.488142,0.008 -84.969771,-2.28745 -89.534582,-6.91069 l -1.8277951,-1.8278 -1.7073897,-1.70738 C 2.2867563,281.98852 2.4829877e-5,267.20183 2.4829877e-5,247 c 0,0 1.614596170123,-35 100.000095170123,-35 98.3855,0 100.0001,35 100.0001,35 -0.004,21.09997 -2.32053,34.96388 -6.91121,39.55456 l -1.70687,1.70636 -0.0605,0.0605 -0.0605,0.0605 -1.70636,1.70687 c -4.5914,4.59141 -47.08623,6.90319 -89.574379,6.91121 z"
       id="path2503-1-0-9"
       inkscape:connector-curvature="0"
       sodipodi:nodetypes="ccccczccccccsc" />
    <path
       style="fill:#ffffff;fill-opacity:1;stroke:none;stroke-width:1.29233921px;stroke-linecap:butt;stroke-linejoin:miter;stroke-opacity:1"
       d="M 377.87891,0 C 217.29379,-0.03030992 56.7333,8.6454852 39.480469,26.119141 l -6.908203,6.908203 -6.453125,6.453125 C 8.6427651,56.73599 -0.03301052,406.31924 0,566.92914 c 0,0 6.1024113,94.48819 377.95312,94.48819 371.85072,0 377.95313,-94.48819 377.95313,-94.48819 -0.0328,-160.55997 -8.77052,-510.100027 -26.12109,-527.450624 l -6.45118,-6.449219 -0.22851,-0.228516 -0.22852,-0.228515 -6.44922,-6.451172 C 699.07441,8.7677709 538.46402,0.03030992 377.87891,0 Z"
       id="path2503-1-0"
       inkscape:connector-curvature="0"
       sodipodi:nodetypes="scccczccccccs"
       transform="matrix(0.26458333,0,0,0.26458333,0,97)" />
    <path
       style="fill:#ffffff;fill-opacity:1;stroke:none;stroke-width:0.3419314px;stroke-linecap:butt;stroke-linejoin:miter;stroke-opacity:1"
       d="m 99.980456,281.99992 c -42.488141,0.008 -84.969771,-2.28745 -89.534582,-6.91069 l -1.827795,-1.8278 -1.70739,-1.70738 C 2.286731,266.98852 0,262.20183 0,242 c 0,0 1.614596,-15 100.0001,-15 98.38551,0 100.00011,15 100.00011,15 -0.004,21.09997 -2.32053,24.96388 -6.91121,29.55456 l -1.70687,1.70636 -0.0605,0.0605 -0.0605,0.0605 -1.70636,1.70687 c -4.5914,4.59141 -47.08623,6.90319 -89.574393,6.91121 z"
       id="path2503-1-0-9-2"
       inkscape:connector-curvature="0"
       sodipodi:nodetypes="ccccczccccccsc" />
  </g>
</svg>
